<svg width="1920" height="394" viewBox="0 0 1920 394" fill="none" xmlns="http://www.w3.org/2000/svg">
<path d="M857.37 58.4421C658.607 58.4421 0 208.744 0 208.744V394H1920V14.5C1920 14.5 1700.28 135.831 1456.08 142.831C1211.89 149.831 1056.13 58.4421 857.37 58.4421Z" fill="white" fill-opacity="0.25"/>
<path d="M639.657 155.197C440.894 155.197 0 0 0 0V394H1920V13.5172C1920 13.5172 1836.58 186.236 1559.94 95.6213C1283.31 5.00636 838.42 155.197 639.657 155.197Z" fill="white" fill-opacity="0.25"/>
<path d="M610.196 53.448C411.433 53.448 0 178.5 0 178.5V393.5H1920V14C1920 14 1452.78 125 1208.58 132C964.388 139 808.959 53.448 610.196 53.448Z" fill="white"/>
</svg>
