<svg width="480" height="99" viewBox="0 0 480 99" fill="none" xmlns="http://www.w3.org/2000/svg">
<path d="M214.343 14.1819C164.652 14.1819 0 51.9482 0 51.9482V98.4972H480V3.14062C480 3.14062 425.069 33.6273 364.02 35.3862C302.972 37.1451 264.033 14.1819 214.343 14.1819Z" fill="white" fill-opacity="0.25"/>
<path d="M159.914 38.9962C110.224 38.9962 0 0 0 0V99H480V3.39644C480 3.39644 459.145 46.7954 389.986 24.0267C320.827 1.25794 209.605 38.9962 159.914 38.9962Z" fill="white" fill-opacity="0.25"/>
<path d="M152.549 13.4301C102.858 13.4301 0 44.8518 0 44.8518V98.8747H480V3.51807C480 3.51807 363.194 31.4089 302.146 33.1678C241.097 34.9267 202.24 13.4301 152.549 13.4301Z" fill="white"/>
</svg>
